<?xml version="1.0" encoding="UTF-8" standalone="no"?>
<!-- Created with Inkscape (http://www.inkscape.org/) -->
<svg
   xmlns:svg="http://www.w3.org/2000/svg"
   xmlns="http://www.w3.org/2000/svg"
   version="1.0"
   width="566.76648"
   height="773.89929"
   id="svg2">
  <defs
     id="defs4">
</defs>
  <g
     transform="translate(-96.616753,-108.26969)"
     id="layer1">
    <path
       d="M 569.59098,635.06539 C 582.02741,616.56946 580.96719,576.07941 556.10204,561.78566 C 537.07979,552.27448 515.59656,555.99685 505.55917,564.18474 C 489.40033,573.95895 473.83737,605.21639 473.83737,636.86866 L 529.63496,636.79897 L 529.61948,699.10498 L 413.81435,699.04307 C 415.33121,731.08992 432.80563,756.75983 465.32454,771.0536 C 461.1378,784.55805 441.52736,812.08542 414.59597,810.22036 C 409.27935,839.34959 404.22584,855.70192 380.01075,882.16897 C 355.78021,855.70966 350.7267,839.34959 345.41009,810.22036 C 318.47862,812.08542 298.86824,784.55805 294.68146,771.0536 C 327.20038,756.75983 344.67487,731.08992 346.1917,699.04307 L 230.37889,699.10498 L 230.37889,636.79897 L 286.16102,636.86866 C 286.16102,605.21639 270.62128,573.95895 254.44695,564.18474 C 244.40957,556.00471 222.93407,552.28223 203.91952,561.78566 C 179.03892,576.07941 177.97099,616.5772 190.40741,635.06539 C 72.915187,613.24942 84.569957,499.78144 124.59568,458.58724 C 156.94433,425.3098 192.21059,420.1093 219.40512,430.60326 C 281.20812,452.7598 322.7737,526.58899 324.79359,636.86866 L 357.11131,636.86866 C 357.11131,536.61867 339.66782,504.65697 294.21714,378.74487 C 271.3255,319.24037 285.07752,245.67409 326.00086,177.93537 C 340.65837,153.65842 358.9686,131.7418 380.01075,108.26969 C 401.0374,131.7418 419.34773,153.65842 434.00514,177.93537 C 474.92856,245.67409 488.6806,319.24037 465.80436,378.74487 C 420.33048,504.65697 402.88695,536.61094 402.88695,636.86866 L 435.20466,636.86866 C 437.22457,526.58899 478.80574,452.7598 540.59326,430.60326 C 567.78781,420.11704 603.07726,425.3098 635.41044,458.58724 C 675.42842,499.78144 687.08328,613.24942 569.59098,635.06539 z"
       id="path6"
       style="fill:#ffffff;fill-opacity:1;fill-rule:evenodd" />
  </g>
</svg>
